<svg width="73" height="11" viewBox="0 0 73 11" fill="none" xmlns="http://www.w3.org/2000/svg">
<path d="M6.42395 8.154H2.64095L1.99095 10H0.443953L3.68095 0.951999H5.39695L8.63395 10H7.07395L6.42395 8.154ZM6.00795 6.945L4.53895 2.746L3.05695 6.945H6.00795ZM9.54741 6.386C9.54741 5.66667 9.69474 5.02967 9.98941 4.475C10.2927 3.92033 10.7001 3.49133 11.2114 3.188C11.7314 2.876 12.3077 2.72 12.9404 2.72C13.4084 2.72 13.8677 2.824 14.3184 3.032C14.7777 3.23133 15.1417 3.5 15.4104 3.838V0.38H16.9054V10H15.4104V8.921C15.1677 9.26767 14.8297 9.55367 14.3964 9.779C13.9717 10.0043 13.4821 10.117 12.9274 10.117C12.3034 10.117 11.7314 9.961 11.2114 9.649C10.7001 9.32833 10.2927 8.88633 9.98941 8.323C9.69474 7.751 9.54741 7.10533 9.54741 6.386ZM15.4104 6.412C15.4104 5.918 15.3064 5.489 15.0984 5.125C14.8991 4.761 14.6347 4.48367 14.3054 4.293C13.9761 4.10233 13.6207 4.007 13.2394 4.007C12.8581 4.007 12.5027 4.10233 12.1734 4.293C11.8441 4.475 11.5754 4.748 11.3674 5.112C11.1681 5.46733 11.0684 5.892 11.0684 6.386C11.0684 6.88 11.1681 7.31333 11.3674 7.686C11.5754 8.05867 11.8441 8.34467 12.1734 8.544C12.5114 8.73467 12.8667 8.83 13.2394 8.83C13.6207 8.83 13.9761 8.73467 14.3054 8.544C14.6347 8.35333 14.8991 8.076 15.0984 7.712C15.3064 7.33933 15.4104 6.906 15.4104 6.412ZM18.358 6.386C18.358 5.66667 18.5053 5.02967 18.8 4.475C19.1033 3.92033 19.5106 3.49133 20.022 3.188C20.542 2.876 21.1183 2.72 21.751 2.72C22.219 2.72 22.6783 2.824 23.129 3.032C23.5883 3.23133 23.9523 3.5 24.221 3.838V0.38H25.716V10H24.221V8.921C23.9783 9.26767 23.6403 9.55367 23.207 9.779C22.7823 10.0043 22.2926 10.117 21.738 10.117C21.114 10.117 20.542 9.961 20.022 9.649C19.5106 9.32833 19.1033 8.88633 18.8 8.323C18.5053 7.751 18.358 7.10533 18.358 6.386ZM24.221 6.412C24.221 5.918 24.117 5.489 23.909 5.125C23.7096 4.761 23.4453 4.48367 23.116 4.293C22.7866 4.10233 22.4313 4.007 22.05 4.007C21.6686 4.007 21.3133 4.10233 20.984 4.293C20.6546 4.475 20.386 4.748 20.178 5.112C19.9786 5.46733 19.879 5.892 19.879 6.386C19.879 6.88 19.9786 7.31333 20.178 7.686C20.386 8.05867 20.6546 8.34467 20.984 8.544C21.322 8.73467 21.6773 8.83 22.05 8.83C22.4313 8.83 22.7866 8.73467 23.116 8.544C23.4453 8.35333 23.7096 8.076 23.909 7.712C24.117 7.33933 24.221 6.906 24.221 6.412ZM32.7685 4.046V8.011C32.7685 8.27967 32.8291 8.47467 32.9505 8.596C33.0805 8.70867 33.2971 8.765 33.6005 8.765H34.5105V10H33.3405C32.6731 10 32.1618 9.844 31.8065 9.532C31.4511 9.22 31.2735 8.713 31.2735 8.011V4.046H30.4285V2.837H31.2735V1.056H32.7685V2.837H34.5105V4.046H32.7685ZM38.9834 10.117C38.3074 10.117 37.6964 9.96533 37.1504 9.662C36.6044 9.35 36.1754 8.91667 35.8634 8.362C35.5514 7.79867 35.3954 7.14867 35.3954 6.412C35.3954 5.684 35.5557 5.03833 35.8764 4.475C36.197 3.91167 36.6347 3.47833 37.1894 3.175C37.744 2.87167 38.3637 2.72 39.0484 2.72C39.733 2.72 40.3527 2.87167 40.9074 3.175C41.462 3.47833 41.8997 3.91167 42.2204 4.475C42.541 5.03833 42.7014 5.684 42.7014 6.412C42.7014 7.14 42.5367 7.78567 42.2074 8.349C41.878 8.91233 41.4274 9.35 40.8554 9.662C40.292 9.96533 39.668 10.117 38.9834 10.117ZM38.9834 8.83C39.3647 8.83 39.72 8.739 40.0494 8.557C40.3874 8.375 40.6604 8.102 40.8684 7.738C41.0764 7.374 41.1804 6.932 41.1804 6.412C41.1804 5.892 41.0807 5.45433 40.8814 5.099C40.682 4.735 40.4177 4.462 40.0884 4.28C39.759 4.098 39.4037 4.007 39.0224 4.007C38.641 4.007 38.2857 4.098 37.9564 4.28C37.6357 4.462 37.38 4.735 37.1894 5.099C36.9987 5.45433 36.9034 5.892 36.9034 6.412C36.9034 7.18333 37.0984 7.78133 37.4884 8.206C37.887 8.622 38.3854 8.83 38.9834 8.83ZM47.0494 6.412C47.0494 5.67533 47.1967 5.02967 47.4914 4.475C47.7947 3.91167 48.2107 3.47833 48.7394 3.175C49.268 2.87167 49.8747 2.72 50.5594 2.72C51.426 2.72 52.141 2.928 52.7044 3.344C53.2764 3.75133 53.662 4.33633 53.8614 5.099H52.2624C52.1324 4.74367 51.9244 4.46633 51.6384 4.267C51.3524 4.06767 50.9927 3.968 50.5594 3.968C49.9527 3.968 49.4674 4.18467 49.1034 4.618C48.748 5.04267 48.5704 5.64067 48.5704 6.412C48.5704 7.18333 48.748 7.78567 49.1034 8.219C49.4674 8.65233 49.9527 8.869 50.5594 8.869C51.4174 8.869 51.985 8.492 52.2624 7.738H53.8614C53.6534 8.466 53.2634 9.04667 52.6914 9.48C52.1194 9.90467 51.4087 10.117 50.5594 10.117C49.8747 10.117 49.268 9.96533 48.7394 9.662C48.2107 9.35 47.7947 8.91667 47.4914 8.362C47.1967 7.79867 47.0494 7.14867 47.0494 6.412ZM54.8443 6.386C54.8443 5.66667 54.9916 5.02967 55.2863 4.475C55.5896 3.92033 55.9969 3.49133 56.5083 3.188C57.0283 2.876 57.6003 2.72 58.2243 2.72C58.7876 2.72 59.2773 2.83267 59.6933 3.058C60.1179 3.27467 60.4559 3.54767 60.7073 3.877V2.837H62.2023V10H60.7073V8.934C60.4559 9.272 60.1136 9.55367 59.6803 9.779C59.2469 10.0043 58.7529 10.117 58.1983 10.117C57.5829 10.117 57.0196 9.961 56.5083 9.649C55.9969 9.32833 55.5896 8.88633 55.2863 8.323C54.9916 7.751 54.8443 7.10533 54.8443 6.386ZM60.7073 6.412C60.7073 5.918 60.6033 5.489 60.3953 5.125C60.1959 4.761 59.9316 4.48367 59.6023 4.293C59.2729 4.10233 58.9176 4.007 58.5363 4.007C58.1549 4.007 57.7996 4.10233 57.4703 4.293C57.1409 4.475 56.8723 4.748 56.6643 5.112C56.4649 5.46733 56.3653 5.892 56.3653 6.386C56.3653 6.88 56.4649 7.31333 56.6643 7.686C56.8723 8.05867 57.1409 8.34467 57.4703 8.544C57.8083 8.73467 58.1636 8.83 58.5363 8.83C58.9176 8.83 59.2729 8.73467 59.6023 8.544C59.9316 8.35333 60.1959 8.076 60.3953 7.712C60.6033 7.33933 60.7073 6.906 60.7073 6.412ZM65.6308 3.877C65.8475 3.513 66.1335 3.23133 66.4888 3.032C66.8528 2.824 67.2818 2.72 67.7758 2.72V4.254H67.3988C66.8182 4.254 66.3762 4.40133 66.0728 4.696C65.7782 4.99067 65.6308 5.502 65.6308 6.23V10H64.1488V2.837H65.6308V3.877ZM70.8671 4.046V8.011C70.8671 8.27967 70.9278 8.47467 71.0491 8.596C71.1791 8.70867 71.3958 8.765 71.6991 8.765H72.6091V10H71.4391C70.7718 10 70.2604 9.844 69.9051 9.532C69.5498 9.22 69.3721 8.713 69.3721 8.011V4.046H68.5271V2.837H69.3721V1.056H70.8671V2.837H72.6091V4.046H70.8671Z" fill="#06E775"/>
</svg>
