<svg width="67" height="12" viewBox="0 0 67 12" fill="none" xmlns="http://www.w3.org/2000/svg">
<path d="M8.97 10H6.747L3.029 4.371V10H0.806V0.874H3.029L6.747 6.529V0.874H8.97V10ZM12.8813 2.577V0.51H16.4823V10H14.1683V2.577H12.8813ZM20.616 7.946L19.173 11.677H17.756L18.51 7.946H20.616ZM21.7354 5.125C21.7354 3.63433 22.0214 2.46 22.5934 1.602C23.1741 0.743999 24.1057 0.314999 25.3884 0.314999C26.6711 0.314999 27.5984 0.743999 28.1704 1.602C28.7511 2.46 29.0414 3.63433 29.0414 5.125C29.0414 6.633 28.7511 7.816 28.1704 8.674C27.5984 9.532 26.6711 9.961 25.3884 9.961C24.1057 9.961 23.1741 9.532 22.5934 8.674C22.0214 7.816 21.7354 6.633 21.7354 5.125ZM26.8574 5.125C26.8574 4.24967 26.7621 3.578 26.5714 3.11C26.3807 2.63333 25.9864 2.395 25.3884 2.395C24.7904 2.395 24.3961 2.63333 24.2054 3.11C24.0147 3.578 23.9194 4.24967 23.9194 5.125C23.9194 5.71433 23.9541 6.204 24.0234 6.594C24.0927 6.97533 24.2314 7.28733 24.4394 7.53C24.6561 7.764 24.9724 7.881 25.3884 7.881C25.8044 7.881 26.1164 7.764 26.3244 7.53C26.5411 7.28733 26.6841 6.97533 26.7534 6.594C26.8227 6.204 26.8574 5.71433 26.8574 5.125ZM30.2159 5.125C30.2159 3.63433 30.5019 2.46 31.0739 1.602C31.6545 0.743999 32.5862 0.314999 33.8689 0.314999C35.1515 0.314999 36.0789 0.743999 36.6509 1.602C37.2315 2.46 37.5219 3.63433 37.5219 5.125C37.5219 6.633 37.2315 7.816 36.6509 8.674C36.0789 9.532 35.1515 9.961 33.8689 9.961C32.5862 9.961 31.6545 9.532 31.0739 8.674C30.5019 7.816 30.2159 6.633 30.2159 5.125ZM35.3379 5.125C35.3379 4.24967 35.2425 3.578 35.0519 3.11C34.8612 2.63333 34.4669 2.395 33.8689 2.395C33.2709 2.395 32.8765 2.63333 32.6859 3.11C32.4952 3.578 32.3999 4.24967 32.3999 5.125C32.3999 5.71433 32.4345 6.204 32.5039 6.594C32.5732 6.97533 32.7119 7.28733 32.9199 7.53C33.1365 7.764 33.4529 7.881 33.8689 7.881C34.2849 7.881 34.5969 7.764 34.8049 7.53C35.0215 7.28733 35.1645 6.97533 35.2339 6.594C35.3032 6.204 35.3379 5.71433 35.3379 5.125ZM38.6963 5.125C38.6963 3.63433 38.9823 2.46 39.5543 1.602C40.135 0.743999 41.0667 0.314999 42.3493 0.314999C43.632 0.314999 44.5593 0.743999 45.1313 1.602C45.712 2.46 46.0023 3.63433 46.0023 5.125C46.0023 6.633 45.712 7.816 45.1313 8.674C44.5593 9.532 43.632 9.961 42.3493 9.961C41.0667 9.961 40.135 9.532 39.5543 8.674C38.9823 7.816 38.6963 6.633 38.6963 5.125ZM43.8183 5.125C43.8183 4.24967 43.723 3.578 43.5323 3.11C43.3417 2.63333 42.9473 2.395 42.3493 2.395C41.7513 2.395 41.357 2.63333 41.1663 3.11C40.9757 3.578 40.8803 4.24967 40.8803 5.125C40.8803 5.71433 40.915 6.204 40.9843 6.594C41.0537 6.97533 41.1923 7.28733 41.4003 7.53C41.617 7.764 41.9333 7.881 42.3493 7.881C42.7653 7.881 43.0773 7.764 43.2853 7.53C43.502 7.28733 43.645 6.97533 43.7143 6.594C43.7837 6.204 43.8183 5.71433 43.8183 5.125ZM48.4378 10.104C48.0478 10.104 47.7271 9.99133 47.4758 9.766C47.2331 9.532 47.1118 9.246 47.1118 8.908C47.1118 8.56133 47.2331 8.271 47.4758 8.037C47.7271 7.803 48.0478 7.686 48.4378 7.686C48.8191 7.686 49.1311 7.803 49.3738 8.037C49.6251 8.271 49.7508 8.56133 49.7508 8.908C49.7508 9.246 49.6251 9.532 49.3738 9.766C49.1311 9.99133 48.8191 10.104 48.4378 10.104ZM50.8457 5.125C50.8457 3.63433 51.1317 2.46 51.7037 1.602C52.2844 0.743999 53.2161 0.314999 54.4987 0.314999C55.7814 0.314999 56.7087 0.743999 57.2807 1.602C57.8614 2.46 58.1517 3.63433 58.1517 5.125C58.1517 6.633 57.8614 7.816 57.2807 8.674C56.7087 9.532 55.7814 9.961 54.4987 9.961C53.2161 9.961 52.2844 9.532 51.7037 8.674C51.1317 7.816 50.8457 6.633 50.8457 5.125ZM55.9677 5.125C55.9677 4.24967 55.8724 3.578 55.6817 3.11C55.4911 2.63333 55.0967 2.395 54.4987 2.395C53.9007 2.395 53.5064 2.63333 53.3157 3.11C53.1251 3.578 53.0297 4.24967 53.0297 5.125C53.0297 5.71433 53.0644 6.204 53.1337 6.594C53.2031 6.97533 53.3417 7.28733 53.5497 7.53C53.7664 7.764 54.0827 7.881 54.4987 7.881C54.9147 7.881 55.2267 7.764 55.4347 7.53C55.6514 7.28733 55.7944 6.97533 55.8637 6.594C55.9331 6.204 55.9677 5.71433 55.9677 5.125ZM59.3262 5.125C59.3262 3.63433 59.6122 2.46 60.1842 1.602C60.7649 0.743999 61.6965 0.314999 62.9792 0.314999C64.2619 0.314999 65.1892 0.743999 65.7612 1.602C66.3419 2.46 66.6322 3.63433 66.6322 5.125C66.6322 6.633 66.3419 7.816 65.7612 8.674C65.1892 9.532 64.2619 9.961 62.9792 9.961C61.6965 9.961 60.7649 9.532 60.1842 8.674C59.6122 7.816 59.3262 6.633 59.3262 5.125ZM64.4482 5.125C64.4482 4.24967 64.3529 3.578 64.1622 3.11C63.9715 2.63333 63.5772 2.395 62.9792 2.395C62.3812 2.395 61.9869 2.63333 61.7962 3.11C61.6055 3.578 61.5102 4.24967 61.5102 5.125C61.5102 5.71433 61.5449 6.204 61.6142 6.594C61.6835 6.97533 61.8222 7.28733 62.0302 7.53C62.2469 7.764 62.5632 7.881 62.9792 7.881C63.3952 7.881 63.7072 7.764 63.9152 7.53C64.1319 7.28733 64.2749 6.97533 64.3442 6.594C64.4135 6.204 64.4482 5.71433 64.4482 5.125Z" fill="#00302E"/>
</svg>
